# xmcd CD database file
#
# Track frame offsets:
#	150
#	21445
#	43668
#	63192
#
# Disc length: 1229 seconds
#
# Revision: 0
# Processed by: cddbd v1.5.1PL0 Copyright (c) Steve Scherf et al.
# Submitted via: CDex 1.51
#
DISCID=2e04cb04
DTITLE=Texaco - autour...
DYEAR=2002
DGENRE=Blues
TTITLE0=Walking The Dog
TTITLE1=I Call You Babe
TTITLE2=Shes' Gone
TTITLE3=Bad Luck Today
EXTD=YEAR: 2002
EXTT0=
EXTT1=
EXTT2=
EXTT3=
PLAYORDER=
